<?xml version="1.0" standalone="no"?>
<!DOCTYPE svg PUBLIC "-//W3C//DTD SVG 20010904//EN"
 "http://www.w3.org/TR/2001/REC-SVG-20010904/DTD/svg10.dtd">
<svg version="1.0" xmlns="http://www.w3.org/2000/svg"
 width="708.000000pt" height="328.000000pt" viewBox="0 0 708.000000 328.000000"
 preserveAspectRatio="xMidYMid meet">

<g transform="translate(0.000000,328.000000) scale(0.100000,-0.100000)"
fill="#000000" stroke="none">
<path d="M2435 3056 c-192 -42 -341 -85 -485 -143 -132 -52 -299 -131 -350
-165 -33 -22 -41 -23 -160 -18 l-125 5 132 5 c72 3 135 8 139 13 28 28 -102
62 -231 60 -214 -3 -478 -72 -685 -179 -47 -24 -74 -35 -60 -25 44 35 242 129
328 155 125 39 292 66 409 66 57 0 103 4 103 8 0 14 -187 22 -272 12 -95 -11
-259 -52 -347 -87 -189 -75 -353 -178 -401 -253 -30 -47 -31 -52 -16 -63 16
-12 16 -14 -2 -37 -68 -89 -92 -132 -81 -151 12 -24 4 -52 -31 -104 -44 -67
-170 -292 -170 -306 0 -8 9 -5 23 8 27 25 67 46 74 39 3 -2 -9 -30 -27 -61
-18 -31 -30 -59 -26 -62 3 -3 19 0 36 7 17 7 34 10 37 6 4 -4 -7 -36 -25 -72
-18 -35 -32 -67 -32 -69 0 -12 21 -2 63 30 59 45 80 46 73 3 -12 -78 -17 -168
-9 -168 5 0 47 32 95 70 66 54 116 84 218 130 120 54 132 58 125 37 -4 -12 -8
-54 -9 -93 -2 -39 -6 -76 -10 -82 -4 -7 -3 -20 3 -29 8 -15 11 -10 17 25 3 23
12 42 19 42 6 0 32 33 58 73 51 80 101 134 111 118 8 -12 -27 -91 -81 -187
-22 -39 -43 -84 -47 -100 -4 -16 -16 -38 -27 -50 -20 -21 -41 -109 -22 -89 6
6 38 64 73 130 69 133 112 200 165 260 38 42 33 22 -10 -41 -29 -42 -145 -278
-145 -293 0 -6 5 -11 10 -11 6 0 10 7 10 16 0 8 4 13 8 10 9 -5 34 20 52 54 6
12 14 20 16 17 3 -3 -23 -61 -58 -128 -57 -112 -96 -194 -141 -300 -14 -33
-14 -39 -1 -55 15 -18 15 -18 10 -1 -4 12 -2 16 5 11 11 -7 29 12 29 31 0 6
-4 3 -10 -5 -5 -8 -12 -12 -15 -8 -14 14 267 538 289 538 6 0 -38 -86 -55
-106 -8 -9 -13 -19 -11 -21 7 -10 0 -33 -10 -31 -6 2 -14 -6 -16 -17 -2 -11
-7 -22 -11 -25 -3 -3 -13 -18 -21 -35 -8 -16 -16 -33 -18 -37 -2 -5 1 -8 6 -8
6 0 14 10 18 22 7 23 139 221 182 273 27 33 61 58 46 34 -4 -8 -22 -34 -39
-59 -17 -25 -41 -63 -54 -85 -20 -35 -21 -37 -2 -15 11 14 21 28 21 33 0 4 4
7 8 7 9 0 -39 -102 -61 -128 -9 -13 -9 -14 0 -8 9 5 11 2 7 -8 -3 -9 -11 -13
-17 -9 -5 3 -7 2 -4 -4 4 -5 -20 -53 -52 -105 -32 -52 -66 -111 -76 -131 -9
-20 -23 -41 -31 -48 -8 -6 -14 -17 -14 -24 0 -7 -11 -24 -24 -38 -13 -14 -21
-29 -17 -33 3 -4 -1 -5 -10 -2 -12 5 -15 1 -11 -18 2 -13 7 -24 11 -24 3 0 26
33 50 73 99 163 272 415 312 452 l42 40 -39 -60 c-123 -185 -152 -232 -159
-252 -9 -33 2 -28 25 10 32 53 144 186 157 187 20 0 8 -105 -17 -147 -27 -45
-13 -35 73 55 34 35 67 60 74 58 7 -3 13 -1 13 4 0 11 -54 258 -75 345 -28
115 -55 264 -55 302 0 34 4 41 48 68 26 16 61 42 79 58 l31 27 16 -42 c19 -54
39 -130 61 -230 9 -43 21 -78 26 -78 5 0 9 6 9 13 0 13 58 224 85 307 7 25 19
64 25 88 l11 43 91 -3 91 -3 12 -45 c7 -25 27 -97 45 -160 18 -63 39 -142 47
-175 8 -33 18 -64 23 -69 4 -4 14 18 20 50 7 33 23 105 36 161 13 55 27 127
30 159 10 80 30 98 98 90 28 -4 71 -8 96 -9 53 -2 53 13 4 -197 -19 -80 -44
-185 -54 -235 -11 -49 -29 -128 -39 -175 -11 -47 -29 -132 -42 -190 -12 -58
-27 -111 -32 -117 -6 -9 -40 -13 -102 -13 l-93 0 -20 68 c-11 37 -34 119 -52
182 -18 63 -41 144 -52 180 l-21 65 -12 -45 c-7 -25 -32 -112 -55 -195 -22
-82 -48 -174 -57 -202 l-16 -53 -101 0 c-73 -1 -96 -3 -83 -11 9 -5 17 -18 17
-27 0 -9 -39 -69 -85 -132 -101 -137 -165 -227 -165 -233 0 -3 43 24 96 59
139 93 145 88 48 -42 -67 -90 -82 -114 -69 -114 4 0 37 13 75 30 73 32 90 36
90 20 0 -12 -54 -91 -111 -164 -59 -74 -48 -86 31 -36 87 55 182 110 191 110
14 0 11 -33 -6 -73 -8 -20 -15 -50 -15 -66 0 -16 -9 -50 -20 -76 -22 -52 -26
-95 -8 -95 14 0 57 28 183 120 180 131 232 159 550 300 28 12 76 35 108 51 52
26 57 26 57 9 0 -10 11 -31 24 -47 27 -32 51 -151 48 -235 -1 -34 2 -48 12
-48 7 0 21 -9 31 -20 17 -19 17 -23 -3 -122 -12 -62 -21 -144 -21 -205 -1 -98
0 -101 20 -96 17 5 20 2 16 -13 -3 -10 -8 -37 -12 -59 l-7 -40 34 38 c41 46
57 39 66 -32 l7 -52 65 62 c36 33 75 71 87 82 13 12 37 51 55 87 41 84 89 159
151 240 62 81 168 191 178 185 4 -3 9 4 12 14 3 14 11 17 29 14 23 -4 30 3 72
85 25 50 46 96 46 103 0 6 -19 -6 -42 -28 -24 -22 -74 -69 -111 -104 -77 -72
-97 -85 -71 -43 24 38 134 144 204 197 30 23 103 87 162 143 105 101 207 179
217 167 4 -3 0 -8 -6 -10 -7 -3 -13 -8 -13 -13 0 -4 17 1 37 11 20 10 39 17
41 14 3 -3 3 -6 1 -8 -2 -2 -38 -29 -79 -59 -71 -53 -220 -197 -220 -213 0 -4
31 22 69 57 38 35 89 77 112 93 24 16 56 39 72 52 38 31 185 103 210 103 18 0
17 -2 -6 -20 -14 -11 -59 -37 -99 -56 -166 -82 -299 -190 -422 -344 -77 -96
-77 -102 1 -27 39 37 76 67 83 67 6 0 8 5 5 10 -4 6 -2 9 3 8 5 -2 23 8 38 22
65 55 170 134 222 165 9 6 34 21 56 34 36 21 138 61 157 61 5 0 6 -6 3 -13 -8
-23 71 -10 289 48 15 4 27 5 27 2 0 -4 -33 -16 -72 -27 -100 -29 -159 -51
-258 -97 -47 -22 -101 -46 -120 -53 -64 -25 -144 -73 -214 -129 -93 -73 -161
-139 -153 -148 4 -3 7 -1 7 5 0 7 8 12 18 12 9 0 25 14 34 30 9 17 24 30 33
30 21 0 136 86 127 95 -4 5 -2 5 5 2 18 -11 43 3 43 25 0 15 5 18 21 13 15 -5
19 -4 15 4 -4 6 -1 11 8 11 8 0 27 11 42 25 15 14 33 25 41 25 7 0 33 9 57 21
25 11 55 22 68 24 13 1 36 6 52 10 21 6 27 5 22 -4 -4 -6 -13 -11 -21 -11 -22
0 -281 -136 -371 -195 -81 -53 -272 -230 -260 -242 3 -4 17 4 31 17 l24 23 -8
-31 c-5 -17 -13 -37 -17 -44 -4 -6 6 -2 23 10 50 35 51 26 3 -25 -46 -47 -27
-37 51 28 56 47 178 129 192 129 14 0 6 -6 -63 -52 -61 -41 -141 -118 -122
-118 7 0 12 5 12 10 0 6 4 10 10 10 5 0 61 29 124 64 63 36 143 74 178 86 35
12 72 26 83 31 41 18 75 28 75 23 0 -3 -14 -37 -30 -76 -40 -94 -39 -105 7
-73 21 14 46 25 56 25 11 0 32 8 48 17 15 9 32 14 35 10 4 -4 -4 -33 -18 -65
-32 -70 -56 -126 -75 -172 -18 -40 -19 -41 88 52 36 32 71 58 77 58 6 0 13 9
17 19 6 21 131 143 247 242 75 64 80 66 145 72 142 14 293 6 293 -14 0 -5 -5
-9 -10 -9 -6 0 -43 -19 -83 -41 -40 -23 -81 -47 -92 -53 -30 -17 -239 -157
-245 -165 -10 -13 -113 -91 -120 -91 -4 0 -10 -7 -14 -15 -8 -22 6 -18 36 10
15 14 30 25 33 25 3 0 36 22 73 49 78 56 129 84 145 78 6 -2 -10 -19 -36 -38
-58 -43 -61 -59 -4 -26 64 38 235 122 302 150 118 49 227 87 245 87 11 0 34 6
52 14 33 14 179 49 351 84 48 10 85 20 83 23 -3 3 50 13 117 23 168 25 169 25
25 23 -71 -2 -128 0 -128 3 0 9 58 28 124 39 76 14 82 21 20 21 -47 1 -48 1
-24 14 23 13 23 14 5 19 -11 2 -3 3 17 2 39 -3 205 18 268 33 34 8 33 9 -37
21 -74 13 -170 10 -258 -7 -124 -25 -172 -33 -205 -37 -81 -10 -125 -22 -123
-33 2 -7 -4 -12 -13 -12 -8 0 -12 -5 -9 -10 3 -6 -3 -10 -15 -10 -12 0 -45 -7
-73 -16 -162 -49 -214 -66 -232 -74 -11 -5 -46 -20 -79 -34 -69 -31 -76 -32
-76 -8 0 10 -4 22 -8 28 -4 5 -19 35 -31 68 -26 63 -23 70 29 81 14 3 39 10
56 15 17 6 38 10 48 10 10 0 24 7 32 15 9 8 27 15 40 15 14 0 23 4 20 9 -3 5
9 11 27 14 41 6 127 7 105 0 -10 -2 -18 -8 -18 -13 0 -5 -12 -13 -27 -19 -24
-10 -20 -11 27 -7 45 3 50 2 28 -6 -16 -5 -28 -14 -28 -19 0 -5 -7 -9 -14 -9
-20 0 -197 -77 -211 -91 -13 -14 23 -5 80 21 70 31 228 75 355 100 36 7 83 18
106 26 22 7 112 18 200 24 191 13 191 13 281 56 74 36 99 56 89 73 -9 14 68
24 134 16 33 -4 60 -5 60 -2 0 3 -34 13 -77 23 -72 16 -75 17 -52 30 13 7 36
13 51 14 32 0 46 16 21 23 -13 3 -12 5 5 6 35 2 17 18 -28 26 -45 8 -51 21
-16 35 29 11 40 26 26 35 -23 14 -7 25 39 25 68 0 71 13 6 34 -76 24 -78 36
-6 36 58 0 61 1 61 24 0 19 -10 29 -45 46 -25 12 -43 26 -39 31 3 5 31 9 62 9
41 0 53 3 42 10 -8 5 -24 10 -35 10 -11 0 -37 5 -57 11 l-38 10 21 22 c18 19
34 23 132 28 62 3 92 7 67 8 -25 1 -65 6 -90 10 -42 6 -38 8 55 18 55 6 117 9
137 6 20 -3 43 -3 50 -1 12 4 -97 16 -322 34 -83 7 -84 8 -40 16 25 5 128 12
230 16 l185 7 -57 18 c-73 22 -218 36 -378 37 -69 0 -132 5 -140 10 -13 8 -12
10 3 10 10 0 16 4 13 9 -4 5 13 12 36 16 24 4 51 12 62 17 10 5 75 14 145 18
l126 9 -155 -5 c-85 -2 -168 -6 -185 -9 -21 -4 -17 -1 10 8 24 7 35 16 28 20
-6 4 -17 5 -25 3 -7 -3 -47 -7 -88 -10 -98 -8 -75 5 60 36 88 19 133 23 277
23 176 0 191 8 35 20 -130 10 -390 -19 -550 -61 -128 -34 -372 -117 -429 -146
-28 -14 -29 -23 -3 -56 11 -14 25 -45 31 -69 6 -24 14 -43 18 -43 3 0 14 18
23 38 61 132 211 215 357 198 102 -12 138 -26 198 -78 80 -70 121 -149 131
-255 4 -44 6 -86 4 -92 -3 -8 -80 -11 -258 -11 -140 0 -254 -2 -254 -5 0 -21
29 -56 60 -74 66 -37 152 -26 231 30 12 9 34 3 102 -26 48 -21 87 -39 87 -42
0 -13 -60 -80 -98 -109 -64 -49 -137 -67 -252 -62 -73 3 -106 10 -143 28 -62
29 -137 103 -163 157 -10 23 -23 43 -28 43 -5 0 -6 -54 -2 -125 l8 -125 -106
0 -106 0 0 208 c0 233 -7 275 -50 297 -38 19 -94 2 -124 -38 -20 -26 -21 -43
-24 -248 l-3 -219 -105 0 -104 0 0 184 c0 217 -9 282 -46 314 -30 26 -45 27
-88 7 -64 -30 -71 -57 -74 -282 l-4 -201 -33 19 c-18 11 -39 27 -46 36 -7 8
-37 26 -66 39 l-53 23 0 73 0 73 -34 -51 c-71 -105 -129 -145 -246 -170 -116
-24 -221 8 -314 96 -73 69 -108 148 -110 247 0 40 -3 73 -6 73 -3 0 -23 -11
-45 -24 l-39 -24 -40 31 c-38 30 -45 32 -122 32 -97 0 -126 -15 -161 -85 -28
-55 -29 -92 -2 -146 29 -61 71 -84 152 -84 76 0 101 8 140 44 32 29 27 31 120
-38 l66 -49 -30 -38 c-34 -43 -109 -93 -165 -108 -57 -16 -202 -13 -260 4 -27
8 -67 28 -89 43 -47 33 -112 114 -124 157 -9 29 -9 29 -12 5 -5 -48 -6 -65 -8
-98 l-1 -33 -102 3 c-97 3 -103 4 -106 24 -3 20 -8 17 -48 -26 -70 -74 -126
-95 -259 -95 -126 0 -172 15 -245 81 -57 52 -87 102 -106 177 -44 168 38 354
190 431 53 27 60 28 163 23 88 -3 116 -9 153 -28 53 -27 140 -113 140 -137 0
-14 2 -15 10 -2 5 8 7 112 4 247 -3 182 -1 235 8 238 7 3 56 6 108 8 l95 2 1
-160 c1 -252 6 -402 11 -381 9 34 54 99 91 134 67 61 135 86 244 90 118 5 182
-12 258 -70 41 -31 55 -37 61 -26 5 7 9 15 9 19 0 20 104 107 158 132 122 57
272 36 378 -52 20 -16 51 -50 70 -77 l34 -48 0 56 c0 36 4 57 13 60 6 2 54 2
105 0 71 -3 92 -7 92 -18 0 -18 2 -18 51 8 27 14 66 23 113 26 81 5 117 -8
172 -60 l32 -30 44 34 c58 45 122 62 201 56 l63 -5 21 43 22 44 -70 0 c-68 0
-70 1 -63 23 8 27 22 37 54 37 14 0 31 4 39 9 12 8 12 12 -2 26 -20 20 -14 35
14 35 12 0 19 5 17 13 -10 27 -311 18 -512 -15 -54 -9 -71 -9 -74 0 -2 7 -11
12 -19 12 -9 0 -13 -6 -10 -14 6 -14 -37 -26 -95 -26 -23 0 -26 4 -24 26 3 25
51 64 79 64 19 0 77 87 71 105 -4 11 1 15 17 16 l24 0 -23 9 c-13 6 -63 6
-120 1 -53 -4 -128 -7 -167 -7 l-70 1 -3 43 c-2 29 0 42 7 37 6 -3 11 -1 11 4
0 6 -10 11 -22 12 -22 0 -22 1 2 11 46 19 65 26 80 31 18 5 -129 51 -218 68
-90 17 -325 6 -502 -25 -80 -13 -146 -23 -148 -21 -11 11 285 63 408 72 73 4
106 12 144 31 47 25 48 25 25 38 -39 20 -255 35 -344 24 -189 -24 -430 -75
-619 -131 -112 -33 -106 -32 -106 -20 0 30 439 137 685 167 164 20 251 47 125
38 -41 -2 -117 -9 -167 -15 -51 -6 -97 -8 -102 -4 -14 8 -225 -31 -352 -65
-113 -31 -159 -37 -159 -20 0 5 7 13 17 18 14 8 13 11 -7 17 -13 4 -44 7 -69
7 l-46 0 32 14 c17 7 35 20 40 27 4 8 18 19 31 26 12 6 22 15 22 19 0 7 -108
46 -163 58 -22 5 -26 10 -21 26 8 27 -12 47 -73 74 -29 13 -53 27 -53 30 0 4
8 13 18 20 15 12 14 13 -13 14 -17 0 -36 5 -41 10 -6 6 -40 14 -75 19 -58 7
-62 9 -39 19 l25 11 -30 0 c-16 -1 -97 -15 -180 -33z m-1272 -363 c-7 -2 -19
-2 -25 0 -7 3 -2 5 12 5 14 0 19 -2 13 -5z m84 -39 c-3 -3 -12 -4 -19 -1 -8 3
-5 6 6 6 11 1 17 -2 13 -5z m-50 -10 c-3 -3 -12 -4 -19 -1 -8 3 -5 6 6 6 11 1
17 -2 13 -5z m-48 -8 c-3 -3 -43 -19 -89 -36 -198 -73 -374 -178 -590 -353
l-85 -68 64 60 c121 115 282 226 441 303 103 50 279 114 259 94z m526 -34 l30
-8 -30 -5 c-16 -3 -66 -3 -110 0 -115 8 -254 -5 -364 -35 -99 -27 -231 -76
-267 -99 -26 -17 -94 -45 -94 -40 0 3 48 29 108 59 150 75 277 114 457 140 44
6 235 -2 270 -12z m1800 -57 c-54 -17 -111 -29 -104 -21 7 7 109 35 129 34 8
0 -3 -6 -25 -13z m-1715 -5 c11 -8 7 -9 -15 -4 -37 8 -45 14 -19 14 10 0 26
-5 34 -10z m-9 -30 c21 -9 20 -10 -11 -5 -19 3 -102 9 -185 13 -148 7 -149 7
-60 12 99 6 219 -4 256 -20z m-381 6 c0 -2 -35 -12 -77 -21 -213 -47 -456
-175 -713 -378 -143 -113 -152 -119 -115 -78 17 18 68 63 115 101 225 179 495
320 700 364 72 16 90 18 90 12z m1915 -26 c-11 -5 -27 -9 -35 -9 -9 0 -8 4 5
9 11 5 27 9 35 9 9 0 8 -4 -5 -9z m-1517 -30 c24 -4 49 -13 55 -20 10 -10 7
-11 -13 -6 -14 4 -84 10 -157 13 -223 9 -361 -21 -588 -132 -121 -59 -268
-149 -359 -220 -21 -16 -64 -49 -95 -73 l-56 -44 50 48 c152 143 455 324 650
387 73 24 195 50 285 61 42 5 168 -3 228 -14z m1424 -8 c2 -4 19 -17 38 -29
24 -16 30 -23 20 -27 -93 -33 -130 -49 -130 -57 0 -5 -18 -9 -40 -9 -41 0 -54
16 -22 26 45 15 48 17 30 21 -26 6 -22 19 12 45 27 20 29 23 13 30 -11 4 0 7
29 7 25 1 48 -2 50 -7z m-702 -12 c-20 -13 -33 -13 -25 0 3 6 14 10 23 10 15
0 15 -2 2 -10z m1465 -1 c-16 -5 -70 -16 -120 -24 -168 -28 -285 -53 -459
-100 -19 -5 -20 -5 -3 5 31 19 209 67 350 94 73 14 141 27 152 29 11 3 40 5
65 5 42 0 43 0 15 -9z m-1685 -74 c-14 -8 -29 -14 -35 -14 -5 0 1 6 15 14 14
8 30 14 35 14 6 0 -1 -6 -15 -14z m-420 -19 c74 -15 53 -25 -30 -15 -30 4 -91
8 -135 9 -56 1 -73 4 -55 10 38 12 148 10 220 -4z m360 -6 c-8 -5 -19 -10 -25
-10 -5 0 -3 5 5 10 8 5 20 10 25 10 6 0 3 -5 -5 -10z m1090 -34 l55 1 -40 -17
c-55 -24 -98 -33 -90 -20 7 11 1 13 -75 12 l-55 0 50 7 c28 5 40 9 28 9 -13 1
-23 7 -23 13 0 8 14 9 48 3 26 -5 72 -9 102 -8z m1185 -114 c-3 -3 -11 0 -18
7 -9 10 -8 11 6 5 10 -3 15 -9 12 -12z m-3507 -637 c-6 -14 -13 -23 -15 -21
-5 5 15 46 22 46 3 0 -1 -11 -7 -25z m3490 -341 c67 -9 67 -24 -1 -24 -47 0
-155 -10 -259 -25 -70 -10 -39 13 45 33 90 22 135 25 215 16z m42 -51 c74 -9
39 -21 -62 -22 -42 -1 -87 -5 -100 -10 -13 -4 -43 -5 -68 -2 l-45 7 55 12
c111 23 140 25 220 15z m1014 -21 c3 -5 -1 -9 -9 -9 -8 0 -12 4 -9 9 3 4 7 8
9 8 2 0 6 -4 9 -8z m56 -8 c0 -2 -9 -4 -20 -4 -11 0 -20 4 -20 9 0 5 9 7 20 4
11 -3 20 -7 20 -9z m-1533 0 c-3 -3 -12 -4 -19 -1 -8 3 -5 6 6 6 11 1 17 -2
13 -5z m-57 -14 c-20 -13 -33 -13 -25 0 3 6 14 10 23 10 15 0 15 -2 2 -10z
m1489 5 c-9 -9 -120 -22 -124 -14 -3 4 1 10 7 12 16 7 123 9 117 2z m-1844
-345 c-3 -5 -12 -10 -18 -10 -7 0 -6 4 3 10 19 12 23 12 15 0z m-205 -94 c0
-2 -8 -10 -17 -17 -16 -13 -17 -12 -4 4 13 16 21 21 21 13z"/>
<path d="M6478 2153 c7 -3 16 -2 19 1 4 3 -2 6 -13 5 -11 0 -14 -3 -6 -6z"/>
<path d="M6528 2143 c6 -2 18 -2 25 0 6 3 1 5 -13 5 -14 0 -19 -2 -12 -5z"/>
<path d="M3906 1861 c-97 -64 -96 -227 3 -285 69 -40 165 -15 205 54 25 42 27
130 6 175 -35 70 -148 99 -214 56z"/>
<path d="M5630 1838 c-78 -41 -66 -48 80 -48 101 0 131 3 128 13 -6 20 -89 57
-128 57 -20 0 -56 -10 -80 -22z"/>
<path d="M6388 1833 c6 -2 18 -2 25 0 6 3 1 5 -13 5 -14 0 -19 -2 -12 -5z"/>
<path d="M2405 1793 c-37 -19 -66 -44 -61 -52 2 -3 63 -5 136 -3 145 3 156 11
80 50 -52 26 -112 28 -155 5z"/>
<path d="M2538 1563 c-231 -4 -237 -6 -173 -62 43 -37 70 -45 140 -39 39 3 64
12 91 33 l37 29 79 -41 c77 -39 78 -40 84 -18 3 12 4 39 2 61 -3 34 -6 39 -28
39 -14 1 -118 -1 -232 -2z"/>
<path d="M721 1514 c0 -11 3 -14 6 -6 3 7 2 16 -1 19 -3 4 -6 -2 -5 -13z"/>
<path d="M1025 1439 c-4 -6 -5 -12 -2 -15 2 -3 7 2 10 11 7 17 1 20 -8 4z"/>
<path d="M826 1385 c-9 -26 -7 -32 5 -12 6 10 9 21 6 23 -2 3 -7 -2 -11 -11z"/>
<path d="M741 1344 c0 -11 3 -14 6 -6 3 7 2 16 -1 19 -3 4 -6 -2 -5 -13z"/>
<path d="M6228 1343 c7 -3 16 -2 19 1 4 3 -2 6 -13 5 -11 0 -14 -3 -6 -6z"/>
<path d="M718 1304 c-5 -4 -8 -16 -8 -28 0 -14 3 -17 11 -9 6 6 9 19 7 28 -1
9 -6 13 -10 9z"/>
<path d="M885 1280 c-9 -16 -13 -30 -11 -30 3 0 12 14 21 30 9 17 13 30 11 30
-3 0 -12 -13 -21 -30z"/>
<path d="M966 1154 c-9 -22 3 -32 14 -14 12 19 12 30 1 30 -5 0 -12 -7 -15
-16z"/>
<path d="M627 1143 c-4 -3 -7 -19 -7 -35 0 -17 -4 -27 -10 -23 -6 3 -7 -1 -4
-9 11 -27 22 -17 29 25 7 40 4 55 -8 42z"/>
<path d="M940 1105 c-7 -9 -8 -15 -2 -15 5 0 12 7 16 15 3 8 4 15 2 15 -2 0
-9 -7 -16 -15z"/>
<path d="M911 1057 c-13 -21 -12 -21 5 -5 10 10 16 20 13 22 -3 3 -11 -5 -18
-17z"/>
<path d="M3604 1034 c-18 -14 -18 -15 4 -4 12 6 22 13 22 15 0 8 -5 6 -26 -11z"/>
<path d="M1005 1030 c-3 -5 -1 -10 4 -10 6 0 11 5 11 10 0 6 -2 10 -4 10 -3 0
-8 -4 -11 -10z"/>
<path d="M891 1014 c0 -11 3 -14 6 -6 3 7 2 16 -1 19 -3 4 -6 -2 -5 -13z"/>
<path d="M720 980 l0 -35 15 29 c9 16 13 31 10 34 -3 3 -5 -1 -5 -9 0 -11 -2
-11 -10 1 -7 11 -10 6 -10 -20z"/>
<path d="M3524 985 c-10 -8 -14 -15 -8 -15 6 0 17 7 24 15 16 19 9 19 -16 0z"/>
<path d="M3430 908 c-25 -22 -36 -36 -25 -30 29 17 91 72 80 72 -6 -1 -30 -19
-55 -42z"/>
<path d="M4448 883 c7 -3 16 -2 19 1 4 3 -2 6 -13 5 -11 0 -14 -3 -6 -6z"/>
<path d="M4340 821 c-36 -27 -83 -66 -106 -87 -47 -45 -90 -104 -76 -104 6 0
12 3 14 8 2 4 46 43 98 87 135 113 150 127 150 137 0 15 -15 8 -80 -41z"/>
</g>
</svg>
